<svg width="348" height="446" viewBox="0 0 348 446" fill="none" xmlns="http://www.w3.org/2000/svg">
<rect x="0.440918" y="43.6749" width="347.333" height="303.478" rx="8" fill="#F2F2F2"/>
<path d="M0.440918 51.6749C0.440918 47.2566 4.02264 43.6749 8.44092 43.6749L339.774 43.6749C344.193 43.6749 347.774 47.2566 347.774 51.6749L347.774 67.3567L0.440918 67.3567L0.440918 51.6749Z" fill="#C5CFD6"/>
<path fill-rule="evenodd" clip-rule="evenodd" d="M11.8434 59.4628C13.781 59.4628 15.3518 57.892 15.3518 55.9543C15.3518 54.0167 13.781 52.4459 11.8434 52.4459C9.90573 52.4459 8.33496 54.0167 8.33496 55.9543C8.33496 57.892 9.90573 59.4628 11.8434 59.4628Z" fill="#F2F2F2"/>
<path fill-rule="evenodd" clip-rule="evenodd" d="M22.3685 59.4628C24.3062 59.4628 25.877 57.892 25.877 55.9543C25.877 54.0167 24.3062 52.4459 22.3685 52.4459C20.4309 52.4459 18.8601 54.0167 18.8601 55.9543C18.8601 57.892 20.4309 59.4628 22.3685 59.4628Z" fill="#F2F2F2"/>
<path fill-rule="evenodd" clip-rule="evenodd" d="M32.8939 59.4628C34.8316 59.4628 36.4024 57.892 36.4024 55.9543C36.4024 54.0167 34.8316 52.4459 32.8939 52.4459C30.9563 52.4459 29.3855 54.0167 29.3855 55.9543C29.3855 57.892 30.9563 59.4628 32.8939 59.4628Z" fill="#F2F2F2"/>
<rect x="272.343" y="159.453" width="61.3973" height="170.158" rx="8" fill="white"/>
<rect x="288.131" y="175.241" width="29.8216" height="22.8047" rx="4" fill="#DDE3E9"/>
<rect x="288.131" y="205.062" width="29.8216" height="21.9276" rx="4" fill="#AFB9C5"/>
<rect x="288.131" y="234.007" width="29.8216" height="21.9276" rx="4" fill="#DDE3E9"/>
<rect x="288.131" y="291.895" width="29.8216" height="21.9276" rx="4" fill="#DDE3E9"/>
<rect x="288.131" y="262.951" width="29.8216" height="21.9276" rx="4" fill="#C5CFD6"/>
<rect x="272.343" y="81.3904" width="61.3973" height="71.0455" rx="8" fill="white"/>
<path fill-rule="evenodd" clip-rule="evenodd" d="M303.042 122.614C310.793 122.614 317.076 116.331 317.076 108.581C317.076 100.83 310.793 94.5469 303.042 94.5469C295.291 94.5469 289.008 100.83 289.008 108.581C289.008 116.331 295.291 122.614 303.042 122.614Z" fill="#DDE3E9"/>
<rect x="281.114" y="126.123" width="43.8552" height="5.26263" rx="2.63131" fill="#DDE3E9"/>
<rect x="288.131" y="134.894" width="29.8216" height="5.26263" rx="2.63131" fill="#DDE3E9"/>
<rect x="14.4746" y="81.3904" width="250.852" height="41.2239" rx="4" fill="white"/>
<rect x="22.3687" y="93.7576" width="199.98" height="6.18359" rx="3" fill="#DDE3E9"/>
<rect x="22.3687" y="104.064" width="134.233" height="6.18359" rx="3" fill="#DDE3E9"/>
<path fill-rule="evenodd" clip-rule="evenodd" d="M238.518 108.142C241.909 108.142 244.658 105.393 244.658 102.002C244.658 98.6115 241.909 95.8626 238.518 95.8626C235.127 95.8626 232.378 98.6115 232.378 102.002C232.378 105.393 235.127 108.142 238.518 108.142Z" fill="#DDE3E9"/>
<path fill-rule="evenodd" clip-rule="evenodd" d="M238.518 104.634C239.971 104.634 241.149 103.456 241.149 102.002C241.149 100.549 239.971 99.371 238.518 99.371C237.065 99.371 235.886 100.549 235.886 102.002C235.886 103.456 237.065 104.634 238.518 104.634Z" fill="#F2F2F2"/>
<rect x="14.4746" y="129.631" width="250.852" height="34.2071" rx="4" fill="white"/>
<rect x="22.3687" y="139.893" width="199.98" height="5.13106" rx="2.56553" fill="#DDE3E9"/>
<rect x="22.3687" y="148.445" width="134.233" height="5.13106" rx="2.56553" fill="#DDE3E9"/>
<path fill-rule="evenodd" clip-rule="evenodd" d="M238.518 152.874C241.909 152.874 244.658 150.126 244.658 146.735C244.658 143.344 241.909 140.595 238.518 140.595C235.127 140.595 232.378 143.344 232.378 146.735C232.378 150.126 235.127 152.874 238.518 152.874Z" fill="#DDE3E9"/>
<path fill-rule="evenodd" clip-rule="evenodd" d="M238.518 149.366C239.971 149.366 241.149 148.188 241.149 146.735C241.149 145.281 239.971 144.103 238.518 144.103C237.065 144.103 235.887 145.281 235.887 146.735C235.887 148.188 237.065 149.366 238.518 149.366Z" fill="#F2F2F2"/>
<rect x="14.4746" y="170.855" width="250.852" height="34.2071" rx="4" fill="white"/>
<rect x="22.3684" y="181.117" width="199.98" height="5.13106" rx="2.56553" fill="#DDE3E9"/>
<rect x="22.3684" y="189.669" width="134.233" height="5.13106" rx="2.56553" fill="#DDE3E9"/>
<path fill-rule="evenodd" clip-rule="evenodd" d="M238.518 194.098C241.909 194.098 244.658 191.349 244.658 187.959C244.658 184.568 241.909 181.819 238.518 181.819C235.127 181.819 232.378 184.568 232.378 187.959C232.378 191.349 235.127 194.098 238.518 194.098Z" fill="#DDE3E9"/>
<path fill-rule="evenodd" clip-rule="evenodd" d="M238.518 190.59C239.971 190.59 241.149 189.412 241.149 187.959C241.149 186.505 239.971 185.327 238.518 185.327C237.065 185.327 235.887 186.505 235.887 187.959C235.887 189.412 237.065 190.59 238.518 190.59Z" fill="#AFB9C5"/>
<rect x="14.4746" y="294.527" width="250.852" height="34.2071" rx="4" fill="white"/>
<rect x="22.3687" y="304.789" width="199.98" height="5.13106" rx="2.56553" fill="#DDE3E9"/>
<rect x="22.3687" y="313.341" width="134.233" height="5.13106" rx="2.56553" fill="#DDE3E9"/>
<path fill-rule="evenodd" clip-rule="evenodd" d="M238.518 317.77C241.909 317.77 244.658 315.021 244.658 311.63C244.658 308.239 241.909 305.491 238.518 305.491C235.127 305.491 232.378 308.239 232.378 311.63C232.378 315.021 235.127 317.77 238.518 317.77Z" fill="#DDE3E9"/>
<path fill-rule="evenodd" clip-rule="evenodd" d="M238.518 314.262C239.971 314.262 241.149 313.084 241.149 311.63C241.149 310.177 239.971 308.999 238.518 308.999C237.065 308.999 235.886 310.177 235.886 311.63C235.886 313.084 237.065 314.262 238.518 314.262Z" fill="#F2F2F2"/>
<rect x="14.4746" y="253.303" width="250.852" height="34.2071" rx="4" fill="white"/>
<rect x="22.3687" y="263.565" width="199.98" height="5.13106" rx="2.56553" fill="#DDE3E9"/>
<rect x="22.3687" y="272.117" width="134.233" height="5.13106" rx="2.56553" fill="#DDE3E9"/>
<path fill-rule="evenodd" clip-rule="evenodd" d="M238.518 276.546C241.909 276.546 244.658 273.797 244.658 270.406C244.658 267.016 241.909 264.267 238.518 264.267C235.127 264.267 232.378 267.016 232.378 270.406C232.378 273.797 235.127 276.546 238.518 276.546Z" fill="#DDE3E9"/>
<path fill-rule="evenodd" clip-rule="evenodd" d="M238.518 273.038C239.971 273.038 241.149 271.86 241.149 270.406C241.149 268.953 239.971 267.775 238.518 267.775C237.065 267.775 235.887 268.953 235.887 270.406C235.887 271.86 237.065 273.038 238.518 273.038Z" fill="#F2F2F2"/>
<rect x="14.4746" y="212.079" width="250.852" height="34.2071" rx="4" fill="white"/>
<rect x="22.3687" y="222.341" width="199.98" height="5.13106" rx="2.56553" fill="#DDE3E9"/>
<rect x="22.3687" y="230.893" width="134.233" height="5.13106" rx="2.56553" fill="#DDE3E9"/>
<path fill-rule="evenodd" clip-rule="evenodd" d="M238.518 235.322C241.909 235.322 244.658 232.573 244.658 229.183C244.658 225.792 241.909 223.043 238.518 223.043C235.127 223.043 232.378 225.792 232.378 229.183C232.378 232.573 235.127 235.322 238.518 235.322Z" fill="#DDE3E9"/>
<path fill-rule="evenodd" clip-rule="evenodd" d="M238.518 231.814C239.971 231.814 241.149 230.636 241.149 229.182C241.149 227.729 239.971 226.551 238.518 226.551C237.065 226.551 235.886 227.729 235.886 229.182C235.886 230.636 237.065 231.814 238.518 231.814Z" fill="#F2F2F2"/>
<path fill-rule="evenodd" clip-rule="evenodd" d="M176.007 209.192C176.006 209.197 176.005 209.202 176.004 209.208C176.005 209.203 176.005 209.185 176.007 209.192" fill="#C5CFD6"/>
<path fill-rule="evenodd" clip-rule="evenodd" d="M176.004 209.2C176.004 209.201 176.004 209.203 176.004 209.204C176.003 209.2 176.008 209.185 176.004 209.2" fill="#C5CFD6"/>
<path fill-rule="evenodd" clip-rule="evenodd" d="M176.016 209.121C176.014 209.139 176.01 209.157 176.008 209.176C176.009 209.166 176.011 209.159 176.012 209.149C175.979 209.393 175.999 209.235 176.016 209.121" fill="#C5CFD6"/>
<path fill-rule="evenodd" clip-rule="evenodd" d="M176.01 209.177C176.008 209.185 176.007 209.194 176.005 209.203C175.992 209.257 176.01 209.177 176.01 209.177" fill="#C5CFD6"/>
<path fill-rule="evenodd" clip-rule="evenodd" d="M176.005 209.2C176.005 209.199 176.005 209.199 176.005 209.198C176.005 209.199 176.005 209.199 176.005 209.2" fill="#C5CFD6"/>
<path fill-rule="evenodd" clip-rule="evenodd" d="M176.002 209.207C176 209.219 176.016 209.162 176.002 209.207Z" fill="#C5CFD6"/>
<path fill-rule="evenodd" clip-rule="evenodd" d="M176.004 209.2L176.006 209.198C176.005 209.199 176.005 209.2 176.004 209.2" fill="#C5CFD6"/>
<rect x="121.825" y="174.079" width="87.7105" height="57.8889" rx="4" transform="rotate(-14 121.825 174.079)" fill="#2B44FF"/>
<path fill-rule="evenodd" clip-rule="evenodd" d="M158.08 182.463L143.508 228.582L192.597 216.343L158.08 182.463Z" fill="black" fill-opacity="0.2"/>
<path fill-rule="evenodd" clip-rule="evenodd" d="M186.058 186.867L171.661 221.563L215.059 210.742L186.058 186.867Z" fill="black" fill-opacity="0.2"/>
<path fill-rule="evenodd" clip-rule="evenodd" d="M195.442 184.944C199.907 183.831 202.625 179.308 201.511 174.843C200.398 170.378 195.876 167.661 191.41 168.774C186.945 169.887 184.228 174.41 185.341 178.875C186.455 183.34 190.977 186.057 195.442 184.944Z" fill="white"/>
<path fill-rule="evenodd" clip-rule="evenodd" d="M173.338 54.1871C166.644 59.4165 159.801 62.3863 156.363 61.9391C147.741 60.8178 143.23 30.4332 148.222 17.6234C153.214 4.81363 185.817 -4.50575 190.416 19.0955C192.012 27.2868 189.437 35.088 185.033 41.7364L199.514 83.4447L172.73 86.7334L173.338 54.1871Z" fill="#B28B67"/>
<path fill-rule="evenodd" clip-rule="evenodd" d="M168.331 24.4761C165.592 21.3219 163.046 18.9722 159.965 17.8043C148.213 19.4355 146.576 17.5006 145.705 10.4085C147.44 8.81838 153.871 5.71016 161.307 4.14487C165.006 2.58056 169.573 2.22861 174.172 3.51563C179.76 4.37993 184.737 7.10798 187.513 13.0185C196.365 24.6927 192.425 38.4604 185.499 43.8486C183.22 41.7431 181.204 39.679 179.387 37.6893C180.483 36.3245 181.048 34.5381 180.818 32.6667C180.366 28.9804 177.001 26.3601 173.303 26.8142C173.031 26.8475 172.765 26.8966 172.505 26.9603C172.904 31.5897 174.134 47.2669 173 52.9041C171.664 59.5501 159.481 62.6375 155.165 63.1675C151.437 63.6252 151.132 60.0907 150.913 57.5576C150.882 57.1928 150.852 56.8488 150.814 56.5404C150.735 55.8962 151.576 55.7946 152.526 55.6799C153.759 55.5309 155.177 55.3597 155.004 53.9491C154.815 52.4115 152.539 51.4939 150.502 50.6727C149.231 50.1604 148.053 49.6856 147.534 49.1213C145.895 47.341 145.1 44.7661 147.211 44.5069C148.365 44.3652 150.029 44.8339 152.031 45.3977C155.054 46.2488 158.847 47.3169 162.816 46.8295C169.374 46.0244 168.344 24.7437 168.331 24.4761Z" fill="#191847"/>
<path fill-rule="evenodd" clip-rule="evenodd" d="M218.396 177.793L177.208 319.269L157.836 425.491L138.392 425.491L157.801 177.793L218.396 177.793Z" fill="#997659"/>
<path fill-rule="evenodd" clip-rule="evenodd" d="M236.906 177.793C234.032 251.289 235.166 291.376 235.809 298.053C236.452 304.731 240.104 349.452 264.987 427.733L244.763 427.733C211.809 352.635 200.306 307.914 196.526 298.053C192.747 288.192 181.584 248.105 165.287 177.793L236.906 177.793Z" fill="#B28B67"/>
<path fill-rule="evenodd" clip-rule="evenodd" d="M219.28 177.793C208.567 226.475 190.037 304.185 163.691 410.921H135.251C133.151 301.366 142.087 229.261 157.561 177.793H219.28Z" fill="#2838B3"/>
<path fill-rule="evenodd" clip-rule="evenodd" d="M237.05 177.793C234.235 251.289 241.53 323.697 264.125 412.065L233.781 412.065C200.767 338.088 177.105 266.038 160.933 177.793L237.05 177.793Z" fill="#2B44FF"/>
<path fill-rule="evenodd" clip-rule="evenodd" d="M267.87 442.304L266.831 425.618C266.792 424.979 266.17 424.541 265.544 424.679C255.787 426.824 242.204 422.129 242.204 422.129C228.485 431.816 208.619 436.188 202.023 437.431C200.84 437.654 200.093 438.845 200.422 440.003L202.033 445.666L242.204 445.666L265.638 445.666L267.87 442.304Z" fill="#191847"/>
<path fill-rule="evenodd" clip-rule="evenodd" d="M162.176 442.304L161.138 425.618C161.098 424.979 160.476 424.541 159.85 424.679C150.093 426.824 136.511 422.129 136.511 422.129C122.791 431.816 102.926 436.188 96.3295 437.431C95.1461 437.654 94.3991 438.844 94.7286 440.003L96.3395 445.666L136.511 445.666L159.945 445.666L162.176 442.304Z" fill="#191847"/>
<path fill-rule="evenodd" clip-rule="evenodd" d="M91.019 202.502L123.418 172.073L133.669 190.498L100.206 209.398C91.6692 222.296 86.6918 227.847 85.2734 226.051C84.0775 224.537 84.6672 222.91 85.2103 221.411C85.6334 220.243 86.0283 219.153 85.5288 218.255C84.3883 216.205 77.719 217.255 71.4326 218.52C65.1461 219.786 66.6499 216.744 68.0095 215.166C74.0129 210.506 81.6827 206.284 91.019 202.502ZM283.345 225.494C279.263 219.282 260.211 156.19 260.211 156.19L236.9 159.145C236.9 159.145 267.035 225.999 269.279 230.041C272.193 235.291 269.38 243.784 267.473 249.544C267.177 250.435 266.904 251.26 266.677 251.998C270.447 253.153 271.927 251.016 273.488 248.762C275.251 246.216 277.116 243.522 282.498 245.259C284.578 245.93 286.572 246.78 288.52 247.611C295.251 250.48 301.433 253.115 308.692 247.322C309.843 246.403 310.853 243.353 307.281 241.505C298.38 236.901 285.341 228.531 283.345 225.494Z" fill="#B28B67"/>
<path fill-rule="evenodd" clip-rule="evenodd" d="M181.957 66.779L172.104 66.314C140.084 101.542 132.65 162.58 92.6141 199.347L104.78 211.102C179.765 192.356 189.766 117.79 181.957 66.779Z" fill="#E87613"/>
<path fill-rule="evenodd" clip-rule="evenodd" d="M238.868 182.502C238.868 182.502 180.827 189.628 153.48 192.986C149.578 193.465 149.624 187.759 149.84 184.856C152.334 151.35 173.416 112.973 167.699 66.4164L191.856 59.5424C216.239 89.7009 228.221 129.047 238.868 182.502Z" fill="#DDE3E9"/>
<path fill-rule="evenodd" clip-rule="evenodd" d="M251.338 204.684C256.304 213.401 261.051 220.955 265.353 226.677L283.666 224.429C277.839 160.686 247.722 114.786 223.92 87.803C228.362 86.9334 232.178 84.5674 234.17 79.6542C241.184 62.357 236.839 53.8413 226.858 52.0922C221.37 51.1304 216.53 52.8412 210.735 54.8891C205.994 56.5648 200.614 58.4663 193.718 59.3138C193.716 59.3141 193.713 59.3144 193.711 59.3147C193.043 59.3967 192.44 59.516 191.899 59.6692L183.783 61.1375C183.783 61.1375 164.364 177.315 183.846 212.971L251.338 204.684Z" fill="#FF9B21"/>
<path fill-rule="evenodd" clip-rule="evenodd" d="M251.338 204.684C244.823 193.248 237.932 179.812 231.179 165.891C231.294 182.121 230.187 198.571 226.112 207.782L251.338 204.684Z" fill="black" fill-opacity="0.1"/>
</svg>
